<?xml version="1.0" encoding="UTF-8" standalone="no"?>
<svg
   xmlns:dc="http://purl.org/dc/elements/1.1/"
   xmlns:cc="http://creativecommons.org/ns#"
   xmlns:rdf="http://www.w3.org/1999/02/22-rdf-syntax-ns#"
   xmlns:svg="http://www.w3.org/2000/svg"
   xmlns="http://www.w3.org/2000/svg"
   xmlns:xlink="http://www.w3.org/1999/xlink"
   xmlns:sodipodi="http://sodipodi.sourceforge.net/DTD/sodipodi-0.dtd"
   xmlns:inkscape="http://www.inkscape.org/namespaces/inkscape"
   width="400"
   height="400"
   viewBox="0 0 105.83333 105.83334"
   version="1.1"
   id="svg8"
   inkscape:version="1.0.2-2 (e86c870879, 2021-01-15)"
   sodipodi:docname="LogoR.svg"
   inkscape:export-filename="C:\Users\raul_\Desktop\MyWebPage\Images\LogoR.png"
   inkscape:export-xdpi="96"
   inkscape:export-ydpi="96">
  <defs
     id="defs2">
    <linearGradient
       inkscape:collect="always"
       id="linearGradient933">
      <stop
         style="stop-color:#46f091;stop-opacity:1"
         offset="0"
         id="stop929" />
      <stop
         style="stop-color:#008080;stop-opacity:1"
         offset="1"
         id="stop931" />
    </linearGradient>
    <linearGradient
       inkscape:collect="always"
       xlink:href="#linearGradient933"
       id="linearGradient919"
       x1="107.76046"
       y1="233.86683"
       x2="294.32004"
       y2="233.86683"
       gradientUnits="userSpaceOnUse"
       gradientTransform="scale(0.26458334)" />
    <linearGradient
       inkscape:collect="always"
       xlink:href="#linearGradient933"
       id="linearGradient927"
       x1="256.21289"
       y1="143.65027"
       x2="110.15225"
       y2="141.34581"
       gradientUnits="userSpaceOnUse" />
  </defs>
  <sodipodi:namedview
     id="base"
     pagecolor="#ffffff"
     bordercolor="#666666"
     borderopacity="1.0"
     inkscape:pageopacity="0.0"
     inkscape:pageshadow="2"
     inkscape:zoom="1.4"
     inkscape:cx="98.187258"
     inkscape:cy="156.75914"
     inkscape:document-units="px"
     inkscape:current-layer="layer1"
     inkscape:document-rotation="0"
     showgrid="false"
     units="px"
     inkscape:object-paths="true"
     inkscape:snap-intersection-paths="true"
     inkscape:snap-smooth-nodes="true"
     inkscape:window-width="1258"
     inkscape:window-height="860"
     inkscape:window-x="104"
     inkscape:window-y="0"
     inkscape:window-maximized="0" />
  <metadata
     id="metadata5">
    <rdf:RDF>
      <cc:Work
         rdf:about="">
        <dc:format>image/svg+xml</dc:format>
        <dc:type
           rdf:resource="http://purl.org/dc/dcmitype/StillImage" />
        <dc:title></dc:title>
      </cc:Work>
    </rdf:RDF>
  </metadata>
  <g
     inkscape:label="Capa 1"
     inkscape:groupmode="layer"
     id="layer1">
    <path
       id="path833"
       style="opacity:1;fill:url(#linearGradient927);fill-opacity:1.0;stroke:#cc7c16;stroke-width:0.215325"
       d="M 207.22852 46.257812 A 97.392335 97.392335 0 0 0 110.125 143.65039 A 97.392335 97.392335 0 0 0 207.51758 241.04297 A 97.392335 97.392335 0 0 0 304.91016 143.65039 A 97.392335 97.392335 0 0 0 207.51758 46.257812 A 97.392335 97.392335 0 0 0 207.22852 46.257812 z M 207.51758 94.953125 A 48.696169 48.696169 0 0 1 256.21289 143.65039 A 48.696169 48.696169 0 0 1 207.51758 192.3457 A 48.696169 48.696169 0 0 1 158.82031 143.65039 A 48.696169 48.696169 0 0 1 207.51758 94.953125 z "
       transform="scale(0.26458334)" />
    <path
       style="opacity:1;fill:#000000;fill-opacity:0.995984;stroke:#cc7c16;stroke-width:0.161494"
       d="m 159.19727,149.69531 v 2.94141 a 48.694217,48.694217 0 0 0 47.85742,39.70703 48.694217,48.694217 0 0 0 0.16992,0 48.696169,48.696169 0 0 1 -48.02734,-42.64844 z"
       transform="scale(0.26458334)"
       id="path886" />
    <path
       id="path868"
       style="opacity:1;fill:url(#linearGradient919);fill-opacity:1;stroke:#cc7c16;stroke-width:0.04259792;stroke-miterlimit:4;stroke-dasharray:none"
       d="M 55.060724,25.124049 A 12.884195,12.884195 0 0 1 67.789662,38.0075 12.884195,12.884195 0 0 1 56.199155,50.826357 a 12.883679,12.883679 0 0 1 -1.16427,0.05271 12.883679,12.883679 0 0 1 -12.883452,-12.883968 12.883679,12.883679 0 0 1 1.721343,-6.433201 c -1.039675,-1.070819 -2.606951,-1.580835 -4.46381,-1.551326 -2.859024,0.04544 -6.398718,1.363771 -9.731706,3.858162 l -0.208256,0.01809 a 25.76839,25.76839 0 0 0 -0.32608,3.591513 h -0.143143 l -0.466637,60.951836 c 0.23513,0.0091 0.472149,0.01447 0.710549,0.01447 7.13431,0 12.877252,-4.118189 12.877252,-9.234062 V 60.380813 a 25.76839,25.76839 0 0 0 5.456513,2.331122 l 22.285463,35.909439 c 0.199287,-0.139843 0.398344,-0.283835 0.596345,-0.432014 5.925312,-4.434483 8.887013,-10.856368 6.640422,-14.399639 L 63.218366,61.896481 A 19.326293,19.326293 0 0 0 74.231647,44.449486 19.326293,19.326293 0 0 0 55.060724,25.124049 Z" />
    <path
       style="opacity:1;fill:#000000;fill-opacity:0.995984;stroke:#cc7c16;stroke-width:0.161494"
       d="m 207.05469,94.955078 a 73.044253,73.044253 0 0 0 -0.33399,0.0039 48.696169,48.696169 0 0 1 0.33399,-0.0039 z"
       transform="scale(0.26458334)"
       id="path838" />
  </g>
</svg>
